<svg xmlns="http://www.w3.org/2000/svg" xmlns:xlink="http://www.w3.org/1999/xlink" width="730.667" height="690.667" viewBox="0 0 548 518" xmlns:v="https://vecta.io/nano"><style><![CDATA[.B{overflow:visible}.C{stroke:none}.D{stroke-miterlimit:3.25}.E{fill:rgb(90.000763%,90.000763%,90.000763%)}.F{stroke-linecap:square}.G{fill:none}.H{fill:rgb(100%,100%,100%)}.I{stroke-width:.25}.J{fill:rgb(99.333181%,99.333181%,99.333181%)}.K{fill:rgb(98.666361%,98.666361%,98.666361%)}.L{fill:rgb(97.999542%,97.999542%,97.999542%)}.M{fill:rgb(97.332723%,97.332723%,97.332723%)}.N{fill:rgb(96.66743%,96.66743%,96.66743%)}.O{fill:rgb(96.00061%,96.00061%,96.00061%)}.P{fill:rgb(95.333791%,95.333791%,95.333791%)}.Q{fill:rgb(94.666972%,94.666972%,94.666972%)}.R{fill:rgb(94.000153%,94.000153%,94.000153%)}.S{fill:rgb(93.333333%,93.333333%,93.333333%)}.T{fill:rgb(92.666514%,92.666514%,92.666514%)}.U{fill:rgb(91.999695%,91.999695%,91.999695%)}.V{fill:rgb(91.332876%,91.332876%,91.332876%)}.W{fill:rgb(90.666056%,90.666056%,90.666056%)}.X{fill:rgb(89.333944%,89.333944%,89.333944%)}.Y{fill:rgb(88.667124%,88.667124%,88.667124%)}.Z{fill:rgb(88.000305%,88.000305%,88.000305%)}.a{fill:rgb(87.333486%,87.333486%,87.333486%)}.b{fill:rgb(86.666667%,86.666667%,86.666667%)}.c{fill:rgb(85.999847%,85.999847%,85.999847%)}.d{fill:rgb(85.333028%,85.333028%,85.333028%)}.e{fill:rgb(84.666209%,84.666209%,84.666209%)}.f{fill:rgb(83.99939%,83.99939%,83.99939%)}.g{fill:rgb(83.334096%,83.334096%,83.334096%)}.h{fill:rgb(82.667277%,82.667277%,82.667277%)}.i{fill:rgb(82.000458%,82.000458%,82.000458%)}.j{fill:rgb(81.333639%,81.333639%,81.333639%)}.k{fill:rgb(80.666819%,80.666819%,80.666819%)}.l{stroke:rgb(0%,0%,0%)}.m{stroke:rgb(60%,60%,60%)}.n{fill:rgb(10.000763%,10.000763%,10.000763%)}.o{stroke-width:.2}.p{stroke:rgb(57.647059%,63.137255%,63.137255%)}.q{fill:rgb(57.647059%,63.137255%,63.137255%)}.r{fill:rgb(0%,0%,0%)}]]></style><defs><symbol id="A" class="B"><path d="M1.211 0v-9.395h5.25v.996H2.547v3.016h3.281v.984H2.547v3.402h4.188V0zm0 0" class="C"/></symbol><symbol id="B" class="B"><path d="M.559 0L3.18-3.559.637-6.895h1.484l2.012 2.656 1.816-2.656h1.223l-2.383 3.5L7.383 0H5.898L3.82-2.73 1.813 0zm0 0" class="C"/></symbol><symbol id="C" class="B"><path d="M1.25 2.508v-9.402H2.5v1.297c.512-.961 1.281-1.445 2.305-1.449.828.004 1.48.309 1.957.91.477.609.715 1.434.715 2.48 0 1.145-.27 2.066-.809 2.766A2.57 2.57 0 0 1 4.539.16 2.58 2.58 0 0 1 2.5-.781v3.289zM2.5-1.645c.641.578 1.254.867 1.844.863.57.004 1.016-.238 1.332-.719.309-.477.465-1.152.469-2.027-.004-1.613-.535-2.418-1.598-2.422-.703.004-1.387.383-2.047 1.137zm0 0" class="C"/></symbol><symbol id="D" class="B"><path d="M1.25 0v-6.895H2.5v1.297c.492-.961 1.211-1.445 2.16-1.449l.398.031v1.176c-.219-.07-.406-.105-.57-.109-.793.004-1.457.473-1.988 1.41V0zm0 0" class="C"/></symbol><symbol id="E" class="B"><path d="M6.305-.223c-.84.254-1.559.379-2.152.383C3.129.156 2.297-.176 1.66-.852S.703-2.398.703-3.477c0-1.039.281-1.895.848-2.566a2.73 2.73 0 0 1 2.168-1.004c.832.004 1.477.301 1.934.895s.68 1.438.684 2.527l-.008.383H1.98c.18 1.637.98 2.453 2.406 2.449.52.004 1.16-.141 1.918-.426zM2.039-4.184h3.039c-.004-1.281-.48-1.922-1.434-1.922-.961 0-1.496.641-1.605 1.922zm0 0" class="C"/></symbol><symbol id="F" class="B"><path d="M.996-.242v-1.148c.816.41 1.527.613 2.133.609.359.004.656-.094.895-.289a.92.92 0 0 0 .355-.734c-.004-.426-.336-.777-.996-1.059l-.73-.312c-1.082-.445-1.621-1.09-1.617-1.934-.004-.602.207-1.074.637-1.418.422-.344 1.008-.516 1.75-.52.383.004.859.059 1.43.16l.258.051v1.039C4.41-6 3.852-6.105 3.441-6.105c-.367 0-.656.082-.875.238-.219.164-.328.375-.324.637-.004.379.301.695.914.953l.602.254c.68.289 1.164.594 1.445.91.281.324.422.723.426 1.195A1.86 1.86 0 0 1 4.91-.422c-.477.387-1.09.578-1.832.582C2.504.156 1.813.027.996-.242zm0 0" class="C"/></symbol><symbol id="G" class="B"><path d="M1.25 0v-6.895H2.5V0zm0-8.145v-1.25H2.5v1.25zm0 0" class="C"/></symbol><symbol id="H" class="B"><path d="M3.992.16C2.977.156 2.176-.164 1.59-.812.996-1.457.703-2.336.703-3.445s.293-1.984.887-2.633c.586-.641 1.387-.965 2.402-.969 1.008.004 1.809.328 2.402.969.586.648.883 1.523.887 2.633-.004 1.109-.301 1.988-.887 2.633C5.801-.164 5 .156 3.992.16zm-.004-.941c.621.004 1.102-.23 1.445-.695s.512-1.121.516-1.969c-.004-.844-.176-1.496-.516-1.965-.344-.461-.824-.695-1.445-.695s-1.102.234-1.441.695c-.34.469-.508 1.121-.508 1.965s.168 1.504.508 1.969.82.699 1.441.695zm0 0" class="C"/></symbol><symbol id="I" class="B"><path d="M1.25 0v-6.895H2.5v1.297c.66-.961 1.469-1.445 2.426-1.449.598.004 1.074.195 1.43.57.352.383.527.891.531 1.523V0h-1.25v-4.547c0-.508-.078-.871-.227-1.094-.152-.215-.398-.324-.746-.328-.766.004-1.488.508-2.164 1.508V0zm0 0" class="C"/></symbol><symbol id="J" class="B"><path d="M1.211 0v-9.395h3.125c.93.004 1.68.105 2.254.313s1.07.559 1.492 1.051c.66.793.992 1.832.996 3.113-.004 1.453-.391 2.629-1.168 3.527-.426.5-.918.855-1.473 1.066C5.879-.105 5.184 0 4.355 0zm1.336-.996h1.707c1.219 0 2.082-.328 2.59-.984.543-.695.813-1.633.816-2.812-.004-1.102-.27-1.969-.805-2.602-.328-.383-.719-.645-1.168-.789-.457-.141-1.137-.211-2.043-.215H2.547zm0 0" class="C"/></symbol><symbol id="K" class="B"><path d="M1.25 0v-6.895H2.5v1.297c.605-.961 1.387-1.445 2.348-1.449.914.004 1.543.488 1.883 1.449.59-.961 1.359-1.445 2.309-1.449.602.004 1.07.184 1.41.539s.508.859.508 1.496V0h-1.25v-4.812c-.004-.781-.316-1.176-.937-1.18-.652.004-1.332.461-2.039 1.375V0H5.477v-4.816c-.004-.789-.32-1.184-.949-1.187C3.895-6 3.219-5.539 2.5-4.621V0zm0 0" class="C"/></symbol><symbol id="L" class="B"><path d="M4.805-.875C4.055-.184 3.332.156 2.641.16 2.066.156 1.594-.02 1.219-.375s-.57-.812-.566-1.359c-.004-.75.313-1.328.949-1.734.629-.402 1.539-.602 2.727-.605h.293v-.832c-.004-.797-.422-1.199-1.25-1.199-.652 0-1.359.203-2.121.609v-1.035c.84-.34 1.637-.512 2.383-.516.766.004 1.328.18 1.691.523.363.352.547.891.547 1.617v3.121c0 .719.219 1.078.66 1.074.051.004.133-.008.242-.027l.09.695c-.289.137-.602.199-.941.203-.586-.004-.957-.344-1.117-1.035zm-.184-.68V-3.34l-.398-.012c-.699 0-1.258.129-1.68.387s-.641.602-.637 1.027a1 1 0 0 0 .316.766c.207.207.465.313.773.309.516.004 1.059-.227 1.625-.691zm0 0" class="C"/></symbol><symbol id="M" class="B"><path d="M1.211 0v-9.395h2.844c.902.004 1.594.203 2.074.598s.715.973.719 1.73c-.004.598-.172 1.129-.5 1.594-.336.469-.801.828-1.395 1.074L8.086 0H6.449L3.773-3.973H2.531V0zm1.32-4.969h.434c.82 0 1.445-.164 1.875-.5s.645-.824.645-1.469c0-.973-.707-1.457-2.113-1.461h-.84zm0 0" class="C"/></symbol><symbol id="N" class="B"><path d="M1.277 2.293l.145-1.082c.723.336 1.438.504 2.148.508C4.973 1.715 5.676.973 5.68-.52v-1.086c-.219.457-.527.813-.926 1.066a2.42 2.42 0 0 1-1.336.379c-.836.004-1.496-.297-1.984-.898s-.73-1.41-.73-2.434c0-1.047.277-1.898.832-2.562.555-.656 1.273-.988 2.156-.992.77.004 1.43.316 1.988.941v-.789h1.254v5.016C6.93-.797 6.875 0 6.762.516s-.324.941-.629 1.273c-.551.578-1.402.871-2.559.871a7.29 7.29 0 0 1-2.297-.367zM5.68-2.391V-5.25c-.555-.57-1.152-.855-1.797-.855-.582 0-1.035.23-1.355.691-.328.461-.488 1.102-.488 1.914 0 1.5.531 2.246 1.594 2.242.727.004 1.406-.375 2.047-1.133zm0 0" class="C"/></symbol><symbol id="O" class="B"><path d="M1.211 0v-9.395h5.25v.996H2.547v3.148h3.285v.984H2.547V0zm0 0" class="C"/></symbol><symbol id="P" class="B"><path d="M5.68 0v-1.297C5.168-.324 4.402.156 3.379.16 2.547.156 1.895-.141 1.418-.746S.703-2.176.703-3.23c0-1.145.27-2.07.809-2.77a2.58 2.58 0 0 1 2.137-1.047 2.58 2.58 0 0 1 2.031.941v-3.918h1.254V0zm0-5.25c-.652-.57-1.266-.855-1.844-.855s-1.016.242-1.328.719-.469 1.156-.469 2.027c0 1.617.531 2.422 1.602 2.418.691.004 1.371-.375 2.039-1.133zm0 0" class="C"/></symbol><symbol id="Q" class="B"><path d="M.102 0l3.113-4.715-2.961-4.68h1.578L4.09-5.859l2.371-3.535h1.258l-3 4.535L7.797 0H6.215L3.832-3.723 1.367 0zm0 0" class="C"/></symbol><symbol id="R" class="B"><path d="M3.242 0v-3.922L.109-9.395h1.52L4.07-5.148l2.625-4.246h1.238L4.578-3.949V0zm0 0" class="C"/></symbol><symbol id="S" class="B"><path d="M8.27-.254C7.129.074 6.137.234 5.293.234c-1.496 0-2.641-.422-3.437-1.273C1.055-1.883.656-3.105.66-4.699c-.004-1.562.402-2.773 1.215-3.637S3.82-9.625 5.293-9.629c.941.004 1.93.145 2.965.426v1.23c-1.297-.438-2.289-.656-2.977-.66-1.02.004-1.809.348-2.367 1.031-.562.691-.84 1.66-.84 2.91 0 1.242.297 2.207.898 2.895S4.414-.762 5.5-.762c.441 0 .922-.078 1.438-.234v-3.059H8.27zm0 0" class="C"/></symbol><symbol id="T" class="B"><path d="M4.324 0A4.1 4.1 0 0 1 3.32.16C2.684.156 2.188-.023 1.832-.387s-.531-.867-.531-1.52v-4.047H.438v-.941h.863v-1.25l1.25-.121v1.371h1.805v.941H2.551v3.82c-.004.902.387 1.355 1.168 1.352a2.38 2.38 0 0 0 .605-.082zm0 0" class="C"/></symbol><symbol id="U" class="B"><path d="M3.445 0v-8.398H.113v-.996h8v.996H4.781V0zm0 0" class="C"/></symbol><symbol id="V" class="B"><path d="M1.211 0v-9.395H2.52l4.73 7.254v-7.254h1.141V0H7.09L2.355-7.254V0zm0 0" class="C"/></symbol><symbol id="W" class="B"><path d="M1.25 0v-10.023H2.5V0zm0 0" class="C"/></symbol><symbol id="X" class="B"><path d="M1.211 0v-9.395H3.77c.734.004 1.305.063 1.703.184s.727.336.984.637c.332.406.496.953.5 1.641-.004 1.004-.34 1.785-1.016 2.352s-1.621.852-2.816.848h-.594V0zm1.32-4.742h.543c.785.004 1.395-.18 1.832-.543.43-.363.648-.879.648-1.551 0-.559-.172-.957-.512-1.199s-.906-.359-1.691-.363h-.82zm0 0" class="C"/></symbol><symbol id="Y" class="B"><path d="M1.484 0v-5.953H.508v-.941h.977v-.824c-.004-1.641.746-2.465 2.25-2.465.414 0 .891.07 1.426.211v.996c-.566-.176-1.02-.262-1.355-.266-.414.004-.695.102-.844.297-.156.199-.23.563-.227 1.094v.957h1.727v.941H2.734V0zm0 0" class="C"/></symbol><symbol id="Z" class="B"><path d="M1.207 0v-9.395h1.332V0zm0 0" class="C"/></symbol><symbol id="a" class="B"><path d="M6.035-.211C5.227.035 4.527.156 3.941.16 3.008.156 2.234-.184 1.625-.875 1.008-1.562.703-2.434.703-3.484c0-1.121.301-1.996.91-2.621s1.453-.937 2.543-.941c.535.004 1.137.078 1.805.223v1.047c-.711-.203-1.285-.305-1.723-.309-.648.004-1.16.242-1.543.719s-.574 1.121-.574 1.922c0 .773.195 1.402.594 1.879a1.9 1.9 0 0 0 1.559.715c.566.004 1.156-.145 1.762-.438zm0 0" class="C"/></symbol><symbol id="b" class="B"><path d="M1.211 0v-9.395h1.336v3.961h4.469v-3.961h1.332V0H7.016v-4.437H2.547V0zm0 0" class="C"/></symbol><symbol id="c" class="B"><path d="M.781 0v-.941l4.266-5.012H.977v-.941H6.59v.941L2.324-.941h4.348V0zm0 0" class="C"/></symbol><symbol id="d" class="B"><path d="M.109 0l3.727-9.395h1.32L8.824 0H7.387L6.363-2.598H2.379L1.344 0zm2.652-3.594h3.215L4.371-7.648zm0 0" class="C"/></symbol><symbol id="e" class="B"><path d="M1.645 2.508L2.766-.004.102-6.895h1.355L3.43-1.707l2.102-5.187h1.184L2.953 2.508zm0 0" class="C"/></symbol><symbol id="f" class="B"><path d="M3.777 0L.23-9.395h1.328l2.906 7.691 2.809-7.691h1.168L5.035 0zm0 0" class="C"/></symbol><symbol id="g" class="B"><path d="M.637-.18V-1.5c1.055.492 1.926.738 2.613.738.52 0 .938-.137 1.258-.414s.477-.641.48-1.086c-.004-.367-.109-.68-.316-.937s-.594-.543-1.156-.863l-.645-.375C2.066-4.891 1.5-5.32 1.176-5.727s-.492-.875-.488-1.41c-.004-.727.258-1.32.785-1.789s1.195-.699 2.008-.703c.719.004 1.48.121 2.289.359v1.219c-.992-.387-1.73-.578-2.215-.582-.465.004-.848.125-1.145.367-.305.246-.453.555-.449.926-.004.316.105.594.328.836s.621.531 1.207.859l.676.383c.813.461 1.379.898 1.699 1.309s.48.902.484 1.477c-.004.82-.305 1.477-.902 1.969-.605.496-1.402.742-2.395.742C2.426.234 1.617.098.637-.18zm0 0" class="C"/></symbol><symbol id="h" class="B"><path d="M2.68 0L.113-6.895h1.254l2 5.363 2.117-5.363h1.168L3.93 0zm0 0" class="C"/></symbol><symbol id="i" class="B"><path d="M5.594 2.406c-.691-.004-1.199-.141-1.523-.414s-.484-.676-.484-1.199v-2.445a.89.89 0 0 0-.262-.656c-.176-.172-.465-.273-.867-.309v-.488c.359-.035.641-.129.836-.281s.293-.375.293-.684v-2.441c0-.523.156-.922.469-1.191s.824-.406 1.539-.422v.445c-.473.004-.844.094-1.117.266-.273.18-.41.465-.406.863v2.469a1.11 1.11 0 0 1-.258.723c-.176.207-.398.371-.664.496a2.27 2.27 0 0 1 .668.516c.164.199.25.438.254.711V.832c-.004.391.137.676.422.859.281.176.648.266 1.102.27zm0 0" class="C"/></symbol><symbol id="j" class="B"><path d="M5.344-2.617a1.4 1.4 0 0 0-.785.262.8.8 0 0 0-.344.703V.793c-.004.57-.176.984-.52 1.234s-.844.375-1.484.379v-.445c.539-.016.93-.121 1.168-.312s.352-.465.355-.816v-2.469a1.06 1.06 0 0 1 .219-.676c.145-.191.379-.375.699-.551-.312-.148-.547-.328-.695-.539a1.09 1.09 0 0 1-.223-.68v-2.469c-.004-.359-.125-.633-.371-.82S2.73-7.66 2.211-7.68v-.445c.563.004 1.039.125 1.426.367s.574.66.578 1.246v2.441c-.004.305.102.535.309.695s.477.25.82.27zm0 0" class="C"/></symbol><symbol id="k" class="B"><path d="M6.5-2.629H1.301v-.477H6.5zm0 0" class="C"/></symbol><symbol id="l" class="B"><path d="M6.762 0H5.293L3.574-2.43 1.871 0H.445l2.469-3.199L.559-6.375h1.414l1.676 2.453 1.645-2.453H6.66L4.266-3.176zm0 0" class="C"/></symbol><symbol id="m" class="B"><path d="M6.328 0H1.117v-1.027H3.25v-6.059L1.262-6.004.855-6.945l2.641-1.391h.98v7.309h1.852zm0 0" class="C"/></symbol><symbol id="n" class="B"><path d="M6.59-4.145c-.004.641-.066 1.219-.191 1.738s-.324.973-.578 1.344c-.262.379-.582.668-.961.871-.387.203-.836.301-1.348.305-.449-.004-.852-.082-1.215-.25s-.676-.422-.934-.77-.461-.789-.598-1.328C.625-2.766.555-3.402.559-4.145.555-4.777.621-5.359.75-5.883s.32-.973.578-1.352a2.67 2.67 0 0 1 .965-.867c.383-.203.832-.305 1.344-.309.441.004.844.086 1.211.25.359.168.672.426.934.773s.457.797.598 1.332.207 1.176.211 1.91zm-1.117.039l-.016-.43-.035-.418L1.91-2.344c.063.223.141.43.242.613a1.68 1.68 0 0 0 .352.477 1.43 1.43 0 0 0 .469.313c.172.074.375.109.602.109a1.5 1.5 0 0 0 .781-.207c.234-.137.438-.344.602-.621s.289-.617.383-1.027c.086-.406.133-.879.133-1.418zm-3.797-.078l.004.395c0 .133.008.258.023.379l3.508-2.594c-.066-.215-.145-.41-.242-.59s-.215-.332-.348-.461-.293-.227-.465-.301-.367-.109-.582-.109c-.289 0-.551.07-.785.211a1.78 1.78 0 0 0-.602.625c-.168.281-.293.621-.379 1.027s-.133.883-.133 1.418zm0 0" class="C"/></symbol><symbol id="o" class="B"><path d="M4.758-1.973H.496v-.738h4.262zm0 0" class="C"/></symbol><symbol id="p" class="B"><path d="M2.355 0v-5.852H1.324v-.547l1.898-.164V0zm0 0" class="C"/></symbol><symbol id="q" class="B"><path d="M2.848.164c-.684 0-1.234-.313-1.652-.938S.566-2.223.57-3.25c-.004-1.023.207-1.848.625-2.477s.969-.941 1.652-.941 1.234.313 1.652.938.621 1.453.625 2.48C5.121-2.223 4.914-1.398 4.5-.773s-.969.938-1.652.938zm-.004-.652c.902.004 1.355-.918 1.359-2.762-.004-1.84-.457-2.762-1.359-2.766-.906.004-1.355.926-1.352 2.766-.004 1.844.445 2.766 1.352 2.762zm0 0" class="C"/></symbol><symbol id="r" class="B"><path d="M1.094.027v-.773c.43.176.84.262 1.23.258.426.004.762-.121 1.008-.375s.363-.598.367-1.043c-.004-.469-.176-.832-.52-1.086s-.848-.375-1.496-.379l-.48.031v-3.164h3.293v.762H1.965v1.707c.832.004 1.484.195 1.957.578.465.383.699.914.703 1.594-.004.633-.215 1.129-.641 1.488s-1.02.539-1.766.539c-.336 0-.711-.047-1.125-.137zm0 0" class="C"/></symbol><symbol id="s" class="B"><path d="M.586-.164v-1.219c.977.453 1.781.68 2.414.68.477 0 .863-.125 1.16-.383.297-.25.445-.586.445-1 0-.336-.098-.625-.293-.867s-.551-.504-1.066-.797l-.598-.344c-.742-.418-1.266-.816-1.562-1.191a2 2 0 0 1-.453-1.301 2.12 2.12 0 0 1 .727-1.656c.484-.43 1.102-.645 1.852-.648.664.004 1.367.113 2.117.336v1.125c-.922-.359-1.602-.539-2.047-.539-.43 0-.781.113-1.055.34s-.418.512-.414.855c-.004.289.098.547.305.77.199.223.57.488 1.109.793l.625.352c.746.43 1.27.832 1.57 1.211.293.379.441.832.445 1.363-.004.754-.281 1.359-.832 1.816-.559.457-1.293.684-2.211.688C2.238.215 1.492.09.586-.164zm0 0" class="C"/></symbol><symbol id="t" class="B"><path d="M1.156 0v-9.25h1.152v4.082c.609-.891 1.355-1.336 2.238-1.336.555 0 .992.176 1.32.527s.488.82.492 1.406V0H5.203v-4.195c0-.473-.07-.809-.207-1.012s-.371-.301-.691-.301c-.707 0-1.371.465-1.996 1.391V0zm0 0" class="C"/></symbol><symbol id="u" class="B"><path d="M4.438-.809c-.695.637-1.359.953-2 .957-.527-.004-.965-.164-1.312-.496S.598-1.094.602-1.602a1.78 1.78 0 0 1 .875-1.598c.586-.375 1.426-.562 2.52-.562h.27v-.77c0-.734-.387-1.105-1.156-1.105-.598 0-1.25.188-1.953.563v-.957c.773-.312 1.508-.473 2.195-.473.707 0 1.227.164 1.566.484.332.324.5.82.504 1.488v2.883c-.004.664.199.992.609.992.047 0 .121-.008.219-.023l.086.641a2.07 2.07 0 0 1-.867.188c-.547-.004-.891-.32-1.031-.957zm-.172-.629v-1.645l-.367-.012c-.645 0-1.16.121-1.551.359s-.59.555-.59.945a.95.95 0 0 0 .293.707.98.98 0 0 0 .715.285c.477 0 .977-.211 1.5-.641zm0 0" class="C"/></symbol><symbol id="v" class="B"><path d="M1.156 0v-6.363h1.152v1.195c.453-.891 1.117-1.336 1.992-1.336.117 0 .238.012.371.031v1.082c-.203-.066-.379-.098-.531-.102-.73.004-1.34.438-1.832 1.301V0zm0 0" class="C"/></symbol><symbol id="w" class="B"><path d="M1.156 0v-6.363h1.152V0zm0-7.516v-1.156h1.152v1.156zm0 0" class="C"/></symbol><symbol id="x" class="B"><path d="M1.156 0v-6.363h1.152v1.195c.609-.891 1.355-1.336 2.238-1.336.555 0 .992.176 1.32.527s.488.82.492 1.406V0H5.203v-4.195c0-.473-.07-.809-.207-1.012s-.371-.301-.691-.301c-.707 0-1.371.465-1.996 1.391V0zm0 0" class="C"/></symbol><symbol id="y" class="B"><path d="M1.18 2.117l.133-1c.668.309 1.328.465 1.984.469C4.59 1.582 5.238.895 5.242-.48v-1.004c-.199.426-.484.754-.852.984-.375.238-.785.355-1.234.352-.773.004-1.383-.273-1.832-.828S.645-2.277.648-3.223c-.004-.969.254-1.758.77-2.367a2.47 2.47 0 0 1 1.988-.914c.711 0 1.324.289 1.836.867v-.727h1.156v4.629c0 .996-.055 1.73-.156 2.211-.109.477-.301.871-.582 1.176-.504.531-1.293.797-2.363.801-.738-.004-1.445-.117-2.117-.336zm4.063-4.324v-2.641c-.512-.523-1.066-.789-1.66-.789-.535 0-.949.215-1.25.641S1.879-3.98 1.883-3.23c-.004 1.383.488 2.07 1.473 2.07.668 0 1.297-.348 1.887-1.047zm0 0" class="C"/></symbol><symbol id="z" class="B"><path d="M.922-.223v-1.059c.75.379 1.406.566 1.969.563.328.004.605-.086.824-.27a.83.83 0 0 0 .328-.676c0-.395-.309-.719-.918-.977l-.676-.289c-1-.414-1.5-1.008-1.496-1.789-.004-.547.191-.984.59-1.305.391-.32.93-.48 1.613-.48.355 0 .797.051 1.32.145l.242.047v.961c-.648-.187-1.16-.285-1.543-.285-.336 0-.605.074-.805.223a.68.68 0 0 0-.301.586c-.004.352.277.645.844.879l.555.234c.629.266 1.074.547 1.336.844s.387.664.391 1.102a1.71 1.71 0 0 1-.66 1.379c-.441.359-1.008.535-1.691.539C2.313.145 1.672.023.922-.223zm0 0" class="C"/></symbol><symbol id="AA" class="B"><path d="M7.633-.445c-.855.441-1.789.66-2.797.664C3.484.215 2.445-.176 1.711-.965S.609-2.871.609-4.328c0-1.449.371-2.57 1.121-3.367.742-.793 1.801-1.191 3.168-1.195.773.004 1.68.129 2.727.383v1.156c-1.191-.41-2.105-.617-2.75-.617-.945 0-1.676.32-2.187.957-.52.637-.777 1.535-.773 2.691-.004 1.113.273 1.984.828 2.621s1.305.961 2.262.957c.813.004 1.688-.25 2.629-.758zm0 0" class="C"/></symbol><clipPath id="AB"><path d="M188.16 108.48h358.559v358.559H188.16zm0 0"/></clipPath><clipPath id="AC"><path d="M188 287h358.961v1H188zm0 0"/></clipPath><path id="AD" d="M1.809 131.516v13.078h13.074v-13.078zm0 0"/><path id="AE" d="M1.809 131.516v12.641h12.641v-12.641zm0 0"/><path id="AF" d="M1.809 131.516v12.203h12.203v-12.203zm0 0"/><path id="AG" d="M1.809 131.516v11.77h11.77v-11.77zm0 0"/><path id="AH" d="M1.809 131.516v11.332h11.332v-11.332zm0 0"/><path id="AI" d="M1.809 131.516v10.898h10.898v-10.898zm0 0"/><path id="AJ" d="M1.809 131.516v10.461H12.27v-10.461zm0 0"/><path id="AK" d="M1.809 131.516v10.027h10.023v-10.027zm0 0"/><path id="AL" d="M1.809 131.516v9.59h9.59v-9.59zm0 0"/><path id="AM" d="M1.809 131.516v9.152h9.152v-9.152zm0 0"/><path id="AN" d="M1.809 131.516v8.719h8.719v-8.719zm0 0"/><path id="AO" d="M1.809 131.516v8.281h8.281v-8.281zm0 0"/><path id="AP" d="M1.809 131.516v7.848h7.844v-7.848zm0 0"/><path id="AQ" d="M1.809 131.516v7.41h7.41v-7.41zm0 0"/><path id="AR" d="M1.809 131.516v6.973h6.973v-6.973zm0 0"/><path id="AS" d="M1.809 131.516v6.539h6.539v-6.539zm0 0"/><path id="AT" d="M1.809 131.516v6.102H7.91v-6.102zm0 0"/><path id="AU" d="M1.809 131.516v5.668h5.664v-5.668zm0 0"/><path id="AV" d="M1.809 131.516v5.23h5.23v-5.23zm0 0"/><path id="AW" d="M1.809 131.516v4.793h4.793v-4.793zm0 0"/><path id="AX" d="M1.809 131.516v4.359h4.359v-4.359zm0 0"/><path id="AY" d="M1.809 131.516v3.922H5.73v-3.922zm0 0"/><path id="AZ" d="M1.809 131.516v3.488h3.484v-3.488zm0 0"/><path id="Aa" d="M1.809 131.516v3.051h3.051v-3.051zm0 0"/><path id="Ab" d="M1.809 131.516v2.613h2.613v-2.613zm0 0"/><path id="Ac" d="M1.809 131.516v2.18h2.18v-2.18zm0 0"/><path id="Ad" d="M1.809 131.516v1.742h1.742v-1.742zm0 0"/><path id="Ae" d="M1.809 131.516v1.309h1.309v-1.309zm0 0"/><path id="Af" d="M1.809 131.516v.871h.871v-.871zm0 0"/><path id="Ag" d="M1.809 131.516v.438h.434v-.437zm0 0"/><path id="Ah" d="M1.809 144.594v-13.078h13.074v13.078zm0 0"/><path id="Ai" d="M5.211 138.191l4.086 4.086 6.293-12.125-1.277-.562-5.32 10.543-2.809-3.117zm0 0"/><path id="Aj" d="M1.5 173.5v-23h135.652v23zm0 0"/><path id="Ak" d="M1.809 180.715v12.207h12.203v-12.207zm0 0"/><path id="Al" d="M1.809 180.715v9.156h9.152v-9.156zm0 0"/><path id="Am" d="M1.809 180.715v6.977h6.973v-6.977zm0 0"/><path id="An" d="M1.809 180.715v4.797h4.793v-4.797zm0 0"/><path id="Ao" d="M1.809 180.715v2.617h2.613v-2.617zm0 0"/><path id="Ap" d="M1.809 279.117v13.074h13.074v-13.074zm0 0"/><path id="Aq" d="M1.809 279.117v11.766h11.77v-11.766zm0 0"/><path id="Ar" d="M1.809 279.117v10.895h10.898v-10.895zm0 0"/><path id="As" d="M1.809 279.117v10.023h10.023v-10.023zm0 0"/><path id="At" d="M1.809 279.117v8.715h8.719v-8.715zm0 0"/><path id="Au" d="M1.809 279.117v7.844h7.844v-7.844zm0 0"/><path id="Av" d="M1.809 279.117v6.535h6.539v-6.535zm0 0"/><path id="Aw" d="M1.809 279.117v5.664h5.664v-5.664zm0 0"/><path id="Ax" d="M1.809 279.117v4.355h4.359v-4.355zm0 0"/><path id="Ay" d="M1.809 279.117v3.484h3.484v-3.484zm0 0"/><path id="Az" d="M1.809 279.117v2.176h2.18v-2.176zm0 0"/><path id="BA" d="M1.809 279.117v1.305h1.309v-1.305zm0 0"/><path id="BB" d="M1.809 279.117v.434h.434v-.434zm0 0"/><path id="BC" d="M1.809 292.191v-13.074h13.074v13.074zm0 0"/><path id="BD" d="M369.676 287.777c0-.598-.238-1.168-.66-1.59s-.992-.66-1.59-.66-1.168.238-1.59.66-.66.992-.66 1.59.238 1.168.66 1.59.992.66 1.59.66 1.168-.238 1.59-.66.66-.992.66-1.59zm0 0"/></defs><path d="M0 0h548v518H0z" fill="rgb(14.999619%,14.999619%,14.999619%)"/><g class="E"><use xlink:href="#A" y="11"/><use xlink:href="#B" x="7.046" y="11"/><use xlink:href="#C" x="15.019" y="11"/><use xlink:href="#D" x="23.201" y="11"/><use xlink:href="#E" x="28.52" y="11"/><use xlink:href="#F" x="35.763" y="11"/><use xlink:href="#F" x="42.39" y="11"/><use xlink:href="#G" x="49.017" y="11"/><use xlink:href="#H" x="52.774" y="11"/><use xlink:href="#I" x="60.76" y="11"/><use xlink:href="#F" x="68.828" y="11"/></g><path d="M1.5 38.5v-23h540.914v23zm0 0" class="D F H I m"/><g class="n"><use xlink:href="#i" x="5" y="31"/><use xlink:href="#l" x="12.801" y="31"/><use xlink:href="#j" x="19.949" y="31"/></g><g class="E"><use xlink:href="#J" y="50"/><use xlink:href="#H" x="9.737" y="50"/><use xlink:href="#K" x="17.723" y="50"/><use xlink:href="#L" x="29.859" y="50"/><use xlink:href="#G" x="37.039" y="50"/><use xlink:href="#I" x="40.796" y="50"/></g><path d="M1.5 80.102v-23h84.191v23zm0 0" class="D F H I m"/><g class="n"><use xlink:href="#m" x="5" y="72.6"/><use xlink:href="#n" x="12.147" y="72.6"/></g><path d="M91.832 80.102v-23h84.191v23zm0 0" class="D F H I m"/><g class="n"><use xlink:href="#k" x="95.33" y="72.6"/><use xlink:href="#m" x="104.132" y="72.6"/><use xlink:href="#n" x="111.279" y="72.6"/></g><g class="E"><use xlink:href="#M" y="94.2"/><use xlink:href="#L" x="8.22" y="94.2"/><use xlink:href="#I" x="15.399" y="94.2"/><use xlink:href="#N" x="23.467" y="94.2"/><use xlink:href="#E" x="31.573" y="94.2"/></g><path d="M1.5 124.301v-23h84.191v23zm0 0" class="D F H I m"/><g class="n"><use xlink:href="#m" x="5" y="116.8"/><use xlink:href="#n" x="12.147" y="116.8"/></g><path d="M91.832 124.301v-23h84.191v23zm0 0" class="D F H I m"/><g class="n"><use xlink:href="#k" x="95.33" y="116.8"/><use xlink:href="#m" x="104.132" y="116.8"/><use xlink:href="#n" x="111.279" y="116.8"/></g><use xlink:href="#AD" class="H"/><use xlink:href="#AE" class="J"/><use xlink:href="#AF" class="K"/><use xlink:href="#AG" class="L"/><use xlink:href="#AH" class="M"/><use xlink:href="#AI" class="N"/><use xlink:href="#AJ" class="O"/><use xlink:href="#AK" class="P"/><use xlink:href="#AL" class="Q"/><use xlink:href="#AM" class="R"/><use xlink:href="#AN" class="S"/><use xlink:href="#AO" class="T"/><use xlink:href="#AP" class="U"/><use xlink:href="#AQ" class="V"/><use xlink:href="#AR" class="W"/><use xlink:href="#AS" class="E"/><use xlink:href="#AT" class="X"/><use xlink:href="#AU" class="Y"/><use xlink:href="#AV" class="Z"/><use xlink:href="#AW" class="a"/><use xlink:href="#AX" class="b"/><use xlink:href="#AY" class="c"/><use xlink:href="#AZ" class="d"/><use xlink:href="#Aa" class="e"/><use xlink:href="#Ab" class="f"/><use xlink:href="#Ac" class="g"/><use xlink:href="#Ad" class="h"/><use xlink:href="#Ae" class="i"/><use xlink:href="#Af" class="j"/><use xlink:href="#Ag" class="k"/><use xlink:href="#Ah" class="D F G I l"/><use xlink:href="#Ai" class="r"/><g class="E"><use xlink:href="#O" x="21.138" y="141.748"/><use xlink:href="#G" x="28.107" y="141.748"/><use xlink:href="#I" x="31.865" y="141.748"/><use xlink:href="#P" x="39.933" y="141.748"/><use xlink:href="#Q" x="52.229" y="141.748"/></g><use xlink:href="#Aj" class="D F H I m"/><use xlink:href="#n" x="5" y="166" class="n"/><use xlink:href="#AD" y="49.199" class="H"/><use xlink:href="#AE" y="49.199" class="J"/><use xlink:href="#Ak" class="K"/><use xlink:href="#AG" y="49.199" class="L"/><use xlink:href="#AH" y="49.199" class="M"/><use xlink:href="#AI" y="49.199" class="N"/><use xlink:href="#AJ" y="49.199" class="O"/><use xlink:href="#AK" y="49.199" class="P"/><use xlink:href="#AL" y="49.199" class="Q"/><use xlink:href="#Al" class="R"/><use xlink:href="#AN" y="49.199" class="S"/><use xlink:href="#AO" y="49.199" class="T"/><use xlink:href="#AP" y="49.199" class="U"/><use xlink:href="#AQ" y="49.199" class="V"/><use xlink:href="#Am" class="W"/><use xlink:href="#AS" y="49.199" class="E"/><use xlink:href="#AT" y="49.199" class="X"/><use xlink:href="#AU" y="49.199" class="Y"/><use xlink:href="#AV" y="49.199" class="Z"/><use xlink:href="#An" class="a"/><use xlink:href="#AX" y="49.199" class="b"/><use xlink:href="#AY" y="49.199" class="c"/><use xlink:href="#AZ" y="49.199" class="d"/><use xlink:href="#Aa" y="49.199" class="e"/><use xlink:href="#Ao" class="f"/><use xlink:href="#Ac" y="49.199" class="g"/><use xlink:href="#Ad" y="49.199" class="h"/><use xlink:href="#Ae" y="49.199" class="i"/><use xlink:href="#Af" y="49.199" class="j"/><use xlink:href="#Ag" y="49.199" class="k"/><use xlink:href="#Ah" y="49.199" class="D F G I l"/><path d="M5.211 187.391l4.086 4.086 6.293-12.121-1.277-.562-5.32 10.539-2.809-3.117zm0 0" class="r"/><g class="E"><use xlink:href="#O" x="21.138" y="190.948"/><use xlink:href="#G" x="28.107" y="190.948"/><use xlink:href="#I" x="31.865" y="190.948"/><use xlink:href="#P" x="39.933" y="190.948"/><use xlink:href="#R" x="52.229" y="190.948"/></g><use xlink:href="#Aj" y="49.199" class="D F H I m"/><use xlink:href="#n" x="5" y="215.2" class="n"/><use xlink:href="#AD" y="98.398" class="H"/><use xlink:href="#AE" y="98.398" class="J"/><use xlink:href="#Ak" y="49.199" class="K"/><use xlink:href="#AG" y="98.398" class="L"/><path d="M1.809 229.914v11.336h11.332v-11.336zm0 0" class="M"/><use xlink:href="#AI" y="98.398" class="N"/><use xlink:href="#AJ" y="98.398" class="O"/><use xlink:href="#AK" y="98.398" class="P"/><use xlink:href="#AL" y="98.398" class="Q"/><use xlink:href="#Al" y="49.199" class="R"/><use xlink:href="#AN" y="98.398" class="S"/><path d="M1.809 229.914v8.285h8.281v-8.285zm0 0" class="T"/><use xlink:href="#AP" y="98.398" class="U"/><use xlink:href="#AQ" y="98.398" class="V"/><use xlink:href="#Am" y="49.199" class="W"/><use xlink:href="#AS" y="98.398" class="E"/><path d="M1.809 229.914v6.105H7.91v-6.105zm0 0" class="X"/><use xlink:href="#AU" y="98.398" class="Y"/><use xlink:href="#AV" y="98.398" class="Z"/><use xlink:href="#An" y="49.199" class="a"/><use xlink:href="#AX" y="98.398" class="b"/><path d="M1.809 229.914v3.926H5.73v-3.926zm0 0" class="c"/><use xlink:href="#AZ" y="98.398" class="d"/><use xlink:href="#Aa" y="98.398" class="e"/><use xlink:href="#Ao" y="49.199" class="f"/><use xlink:href="#Ac" y="98.398" class="g"/><path d="M1.809 229.914v1.746h1.742v-1.746zm0 0" class="h"/><use xlink:href="#Ae" y="98.398" class="i"/><path d="M1.809 229.914v.875h.871v-.875zm0 0" class="j"/><use xlink:href="#Ag" y="98.398" class="k"/><use xlink:href="#Ah" y="98.398" class="D F G I l"/><path d="M5.211 236.59l4.086 4.086 6.293-12.121-1.277-.562-5.32 10.539-2.809-3.113zm0 0" class="r"/><g class="E"><use xlink:href="#O" x="21.138" y="240.148"/><use xlink:href="#G" x="28.107" y="240.148"/><use xlink:href="#I" x="31.865" y="240.148"/><use xlink:href="#P" x="39.933" y="240.148"/><use xlink:href="#S" x="52.229" y="240.148"/><use xlink:href="#D" x="61.623" y="240.148"/><use xlink:href="#L" x="66.942" y="240.148"/><use xlink:href="#P" x="74.122" y="240.148"/><use xlink:href="#G" x="82.304" y="240.148"/><use xlink:href="#E" x="86.062" y="240.148"/><use xlink:href="#I" x="93.304" y="240.148"/><use xlink:href="#T" x="101.372" y="240.148"/></g><use xlink:href="#Aj" y="98.398" class="D F H I m"/><use xlink:href="#n" x="5" y="264.4" class="n"/><use xlink:href="#Ap" class="H"/><use xlink:href="#AE" y="147.601" class="J"/><use xlink:href="#AF" y="147.601" class="K"/><use xlink:href="#Aq" class="L"/><use xlink:href="#AH" y="147.601" class="M"/><use xlink:href="#Ar" class="N"/><use xlink:href="#AJ" y="147.601" class="O"/><use xlink:href="#As" class="P"/><use xlink:href="#AL" y="147.601" class="Q"/><use xlink:href="#AM" y="147.601" class="R"/><use xlink:href="#At" class="S"/><use xlink:href="#AO" y="147.601" class="T"/><use xlink:href="#Au" class="U"/><use xlink:href="#AQ" y="147.601" class="V"/><use xlink:href="#AR" y="147.601" class="W"/><use xlink:href="#Av" class="E"/><use xlink:href="#AT" y="147.601" class="X"/><use xlink:href="#Aw" class="Y"/><use xlink:href="#AV" y="147.601" class="Z"/><use xlink:href="#AW" y="147.601" class="a"/><use xlink:href="#Ax" class="b"/><use xlink:href="#AY" y="147.601" class="c"/><use xlink:href="#Ay" class="d"/><use xlink:href="#Aa" y="147.601" class="e"/><use xlink:href="#Ab" y="147.601" class="f"/><use xlink:href="#Az" class="g"/><use xlink:href="#Ad" y="147.601" class="h"/><use xlink:href="#BA" class="i"/><use xlink:href="#Af" y="147.601" class="j"/><use xlink:href="#BB" class="k"/><use xlink:href="#BC" class="D F G I l"/><g class="E"><use xlink:href="#O" x="21.138" y="289.348"/><use xlink:href="#G" x="28.107" y="289.348"/><use xlink:href="#I" x="31.865" y="289.348"/><use xlink:href="#P" x="39.933" y="289.348"/><use xlink:href="#U" x="52.229" y="289.348"/><use xlink:href="#L" x="60.449" y="289.348"/><use xlink:href="#I" x="67.628" y="289.348"/><use xlink:href="#N" x="75.696" y="289.348"/><use xlink:href="#E" x="83.802" y="289.348"/><use xlink:href="#I" x="91.044" y="289.348"/><use xlink:href="#T" x="99.112" y="289.348"/><use xlink:href="#L" x="108.088" y="289.348"/><use xlink:href="#T" x="115.267" y="289.348"/><use xlink:href="#Q" x="124.243" y="289.348"/></g><use xlink:href="#Aj" y="147.602" class="D F H I m"/><use xlink:href="#m" x="5" y="313.6" class="n"/><use xlink:href="#Ap" y="49.199" class="H"/><use xlink:href="#AE" y="196.8" class="J"/><use xlink:href="#AF" y="196.8" class="K"/><use xlink:href="#AG" y="196.8" class="L"/><use xlink:href="#AH" y="196.8" class="M"/><use xlink:href="#Ar" y="49.199" class="N"/><use xlink:href="#AJ" y="196.8" class="O"/><use xlink:href="#As" y="49.199" class="P"/><use xlink:href="#AL" y="196.8" class="Q"/><use xlink:href="#AM" y="196.8" class="R"/><use xlink:href="#AN" y="196.8" class="S"/><use xlink:href="#AO" y="196.8" class="T"/><use xlink:href="#Au" y="49.199" class="U"/><use xlink:href="#AQ" y="196.8" class="V"/><use xlink:href="#AR" y="196.8" class="W"/><use xlink:href="#AS" y="196.8" class="E"/><use xlink:href="#AT" y="196.8" class="X"/><use xlink:href="#Aw" y="49.199" class="Y"/><use xlink:href="#AV" y="196.8" class="Z"/><use xlink:href="#AW" y="196.8" class="a"/><use xlink:href="#AX" y="196.8" class="b"/><use xlink:href="#AY" y="196.8" class="c"/><use xlink:href="#Ay" y="49.199" class="d"/><use xlink:href="#Aa" y="196.8" class="e"/><use xlink:href="#Ab" y="196.8" class="f"/><use xlink:href="#Ac" y="196.8" class="g"/><use xlink:href="#Ad" y="196.8" class="h"/><use xlink:href="#Ae" y="196.8" class="i"/><use xlink:href="#Af" y="196.8" class="j"/><use xlink:href="#BB" y="49.199" class="k"/><use xlink:href="#BC" y="49.2" class="D F G I l"/><g class="E"><use xlink:href="#O" x="21.138" y="338.548"/><use xlink:href="#G" x="28.107" y="338.548"/><use xlink:href="#I" x="31.865" y="338.548"/><use xlink:href="#P" x="39.933" y="338.548"/><use xlink:href="#V" x="52.229" y="338.548"/><use xlink:href="#H" x="61.833" y="338.548"/><use xlink:href="#D" x="69.818" y="338.548"/><use xlink:href="#K" x="75.137" y="338.548"/><use xlink:href="#L" x="87.274" y="338.548"/><use xlink:href="#W" x="94.453" y="338.548"/><use xlink:href="#L" x="102.324" y="338.548"/><use xlink:href="#T" x="109.503" y="338.548"/><use xlink:href="#Q" x="118.479" y="338.548"/></g><use xlink:href="#Aj" y="196.801" class="D F H I m"/><use xlink:href="#m" x="5" y="362.8" class="n"/><use xlink:href="#AD" y="246" class="H"/><use xlink:href="#AE" y="246" class="J"/><use xlink:href="#AF" y="246" class="K"/><use xlink:href="#AG" y="246" class="L"/><use xlink:href="#AH" y="246" class="M"/><use xlink:href="#AI" y="246" class="N"/><use xlink:href="#AJ" y="246" class="O"/><use xlink:href="#AK" y="246" class="P"/><use xlink:href="#AL" y="246" class="Q"/><use xlink:href="#AM" y="246" class="R"/><use xlink:href="#AN" y="246" class="S"/><use xlink:href="#AO" y="246" class="T"/><use xlink:href="#AP" y="246" class="U"/><use xlink:href="#AQ" y="246" class="V"/><use xlink:href="#AR" y="246" class="W"/><use xlink:href="#AS" y="246" class="E"/><use xlink:href="#AT" y="246" class="X"/><use xlink:href="#AU" y="246" class="Y"/><use xlink:href="#AV" y="246" class="Z"/><use xlink:href="#AW" y="246" class="a"/><use xlink:href="#AX" y="246" class="b"/><use xlink:href="#AY" y="246" class="c"/><use xlink:href="#AZ" y="246" class="d"/><use xlink:href="#Aa" y="246" class="e"/><use xlink:href="#Ab" y="246" class="f"/><use xlink:href="#Ac" y="246" class="g"/><use xlink:href="#Ad" y="246" class="h"/><use xlink:href="#Ae" y="246" class="i"/><use xlink:href="#Af" y="246" class="j"/><use xlink:href="#Ag" y="246" class="k"/><use xlink:href="#Ah" y="246" class="D F G I l"/><use xlink:href="#Ai" y="246" class="r"/><g class="E"><use xlink:href="#X" x="21.138" y="387.748"/><use xlink:href="#H" x="28.323" y="387.748"/><use xlink:href="#G" x="36.309" y="387.748"/><use xlink:href="#I" x="40.066" y="387.748"/><use xlink:href="#T" x="48.134" y="387.748"/><use xlink:href="#F" x="52.997" y="387.748"/><use xlink:href="#H" x="63.737" y="387.748"/><use xlink:href="#Y" x="71.722" y="387.748"/><use xlink:href="#Z" x="80.996" y="387.748"/><use xlink:href="#I" x="84.741" y="387.748"/><use xlink:href="#T" x="92.809" y="387.748"/><use xlink:href="#E" x="97.671" y="387.748"/><use xlink:href="#D" x="104.914" y="387.748"/><use xlink:href="#F" x="110.233" y="387.748"/><use xlink:href="#E" x="116.86" y="387.748"/><use xlink:href="#a" x="124.103" y="387.748"/><use xlink:href="#T" x="130.762" y="387.748"/><use xlink:href="#G" x="135.624" y="387.748"/><use xlink:href="#H" x="139.382" y="387.748"/><use xlink:href="#I" x="147.367" y="387.748"/></g><use xlink:href="#Ap" y="119" class="H"/><use xlink:href="#AE" y="266.601" class="J"/><use xlink:href="#AF" y="266.601" class="K"/><use xlink:href="#Aq" y="119" class="L"/><use xlink:href="#AH" y="266.601" class="M"/><use xlink:href="#Ar" y="119" class="N"/><use xlink:href="#AJ" y="266.601" class="O"/><use xlink:href="#As" y="119" class="P"/><use xlink:href="#AL" y="266.601" class="Q"/><use xlink:href="#AM" y="266.601" class="R"/><use xlink:href="#At" y="119" class="S"/><use xlink:href="#AO" y="266.601" class="T"/><use xlink:href="#Au" y="119" class="U"/><use xlink:href="#AQ" y="266.601" class="V"/><use xlink:href="#AR" y="266.601" class="W"/><use xlink:href="#Av" y="119" class="E"/><use xlink:href="#AT" y="266.601" class="X"/><use xlink:href="#Aw" y="119" class="Y"/><use xlink:href="#AV" y="266.601" class="Z"/><use xlink:href="#AW" y="266.601" class="a"/><use xlink:href="#Ax" y="119" class="b"/><use xlink:href="#AY" y="266.601" class="c"/><use xlink:href="#Ay" y="119" class="d"/><use xlink:href="#Aa" y="266.601" class="e"/><use xlink:href="#Ab" y="266.601" class="f"/><use xlink:href="#Az" y="119" class="g"/><use xlink:href="#Ad" y="266.601" class="h"/><use xlink:href="#BA" y="119" class="i"/><use xlink:href="#Af" y="266.601" class="j"/><use xlink:href="#BB" y="119" class="k"/><use xlink:href="#BC" y="119" class="D F G I l"/><g class="E"><use xlink:href="#b" x="21.138" y="408.348"/><use xlink:href="#H" x="30.691" y="408.348"/><use xlink:href="#D" x="38.676" y="408.348"/><use xlink:href="#G" x="43.996" y="408.348"/><use xlink:href="#c" x="47.753" y="408.348"/><use xlink:href="#H" x="55.206" y="408.348"/><use xlink:href="#I" x="63.191" y="408.348"/><use xlink:href="#T" x="71.259" y="408.348"/><use xlink:href="#L" x="76.121" y="408.348"/><use xlink:href="#W" x="83.3" y="408.348"/><use xlink:href="#d" x="91.171" y="408.348"/><use xlink:href="#F" x="100.141" y="408.348"/><use xlink:href="#e" x="106.768" y="408.348"/><use xlink:href="#K" x="113.56" y="408.348"/><use xlink:href="#C" x="125.696" y="408.348"/><use xlink:href="#T" x="133.878" y="408.348"/><use xlink:href="#H" x="138.741" y="408.348"/><use xlink:href="#T" x="146.726" y="408.348"/><use xlink:href="#E" x="151.588" y="408.348"/><use xlink:href="#F" x="158.831" y="408.348"/></g><use xlink:href="#AD" y="287.199" class="H"/><use xlink:href="#AE" y="287.199" class="J"/><use xlink:href="#Ak" y="238" class="K"/><use xlink:href="#AG" y="287.199" class="L"/><use xlink:href="#AH" y="287.199" class="M"/><use xlink:href="#AI" y="287.199" class="N"/><use xlink:href="#AJ" y="287.199" class="O"/><use xlink:href="#AK" y="287.199" class="P"/><use xlink:href="#AL" y="287.199" class="Q"/><use xlink:href="#Al" y="238" class="R"/><use xlink:href="#AN" y="287.199" class="S"/><use xlink:href="#AO" y="287.199" class="T"/><use xlink:href="#AP" y="287.199" class="U"/><use xlink:href="#AQ" y="287.199" class="V"/><use xlink:href="#Am" y="238" class="W"/><use xlink:href="#AS" y="287.199" class="E"/><use xlink:href="#AT" y="287.199" class="X"/><use xlink:href="#AU" y="287.199" class="Y"/><use xlink:href="#AV" y="287.199" class="Z"/><use xlink:href="#An" y="238" class="a"/><use xlink:href="#AX" y="287.199" class="b"/><use xlink:href="#AY" y="287.199" class="c"/><use xlink:href="#AZ" y="287.199" class="d"/><use xlink:href="#Aa" y="287.199" class="e"/><use xlink:href="#Ao" y="238" class="f"/><use xlink:href="#Ac" y="287.199" class="g"/><use xlink:href="#Ad" y="287.199" class="h"/><use xlink:href="#Ae" y="287.199" class="i"/><use xlink:href="#Af" y="287.199" class="j"/><use xlink:href="#Ag" y="287.199" class="k"/><use xlink:href="#Ah" y="287.199" class="D F G I l"/><g class="E"><use xlink:href="#f" x="21.138" y="428.948"/><use xlink:href="#E" x="29.637" y="428.948"/><use xlink:href="#D" x="36.88" y="428.948"/><use xlink:href="#T" x="42.199" y="428.948"/><use xlink:href="#G" x="47.062" y="428.948"/><use xlink:href="#a" x="50.819" y="428.948"/><use xlink:href="#L" x="57.478" y="428.948"/><use xlink:href="#W" x="64.657" y="428.948"/><use xlink:href="#d" x="72.528" y="428.948"/><use xlink:href="#F" x="81.498" y="428.948"/><use xlink:href="#e" x="88.125" y="428.948"/><use xlink:href="#K" x="94.917" y="428.948"/><use xlink:href="#C" x="107.053" y="428.948"/><use xlink:href="#T" x="115.235" y="428.948"/><use xlink:href="#H" x="120.098" y="428.948"/><use xlink:href="#T" x="128.083" y="428.948"/><use xlink:href="#E" x="132.945" y="428.948"/><use xlink:href="#F" x="140.188" y="428.948"/></g><use xlink:href="#Ap" y="160.199" class="H"/><use xlink:href="#AE" y="307.8" class="J"/><use xlink:href="#AF" y="307.8" class="K"/><use xlink:href="#AG" y="307.8" class="L"/><use xlink:href="#AH" y="307.8" class="M"/><use xlink:href="#Ar" y="160.199" class="N"/><use xlink:href="#AJ" y="307.8" class="O"/><use xlink:href="#As" y="160.199" class="P"/><use xlink:href="#AL" y="307.8" class="Q"/><use xlink:href="#AM" y="307.8" class="R"/><use xlink:href="#AN" y="307.8" class="S"/><use xlink:href="#AO" y="307.8" class="T"/><use xlink:href="#Au" y="160.199" class="U"/><use xlink:href="#AQ" y="307.8" class="V"/><use xlink:href="#AR" y="307.8" class="W"/><use xlink:href="#AS" y="307.8" class="E"/><use xlink:href="#AT" y="307.8" class="X"/><use xlink:href="#Aw" y="160.199" class="Y"/><use xlink:href="#AV" y="307.8" class="Z"/><use xlink:href="#AW" y="307.8" class="a"/><use xlink:href="#AX" y="307.8" class="b"/><use xlink:href="#AY" y="307.8" class="c"/><use xlink:href="#Ay" y="160.199" class="d"/><use xlink:href="#Aa" y="307.8" class="e"/><use xlink:href="#Ab" y="307.8" class="f"/><use xlink:href="#Ac" y="307.8" class="g"/><use xlink:href="#Ad" y="307.8" class="h"/><use xlink:href="#Ae" y="307.8" class="i"/><use xlink:href="#Af" y="307.8" class="j"/><use xlink:href="#BB" y="160.199" class="k"/><use xlink:href="#BC" y="160.2" class="D F G I l"/><g class="E"><use xlink:href="#g" x="21.138" y="449.548"/><use xlink:href="#W" x="28.139" y="449.548"/><use xlink:href="#L" x="31.897" y="449.548"/><use xlink:href="#I" x="39.076" y="449.548"/><use xlink:href="#T" x="47.144" y="449.548"/><use xlink:href="#d" x="56.12" y="449.548"/><use xlink:href="#F" x="65.089" y="449.548"/><use xlink:href="#e" x="71.716" y="449.548"/><use xlink:href="#K" x="78.508" y="449.548"/><use xlink:href="#C" x="90.645" y="449.548"/><use xlink:href="#T" x="98.827" y="449.548"/><use xlink:href="#H" x="103.689" y="449.548"/><use xlink:href="#T" x="111.674" y="449.548"/><use xlink:href="#E" x="116.537" y="449.548"/><use xlink:href="#F" x="123.779" y="449.548"/></g><use xlink:href="#AD" y="328.398" class="H"/><use xlink:href="#AE" y="328.398" class="J"/><use xlink:href="#Ak" y="279.199" class="K"/><use xlink:href="#AG" y="328.398" class="L"/><path d="M1.809 459.914v11.336h11.332v-11.336zm0 0" class="M"/><use xlink:href="#AI" y="328.398" class="N"/><use xlink:href="#AJ" y="328.398" class="O"/><use xlink:href="#AK" y="328.398" class="P"/><use xlink:href="#AL" y="328.398" class="Q"/><use xlink:href="#Al" y="279.199" class="R"/><use xlink:href="#AN" y="328.398" class="S"/><path d="M1.809 459.914v8.285h8.281v-8.285zm0 0" class="T"/><use xlink:href="#AP" y="328.398" class="U"/><use xlink:href="#AQ" y="328.398" class="V"/><use xlink:href="#Am" y="279.199" class="W"/><use xlink:href="#AS" y="328.398" class="E"/><path d="M1.809 459.914v6.105H7.91v-6.105zm0 0" class="X"/><use xlink:href="#AU" y="328.398" class="Y"/><use xlink:href="#AV" y="328.398" class="Z"/><use xlink:href="#An" y="279.199" class="a"/><use xlink:href="#AX" y="328.398" class="b"/><path d="M1.809 459.914v3.926H5.73v-3.926zm0 0" class="c"/><use xlink:href="#AZ" y="328.398" class="d"/><use xlink:href="#Aa" y="328.398" class="e"/><use xlink:href="#Ao" y="279.199" class="f"/><use xlink:href="#Ac" y="328.398" class="g"/><path d="M1.809 459.914v1.746h1.742v-1.746zm0 0" class="h"/><use xlink:href="#Ae" y="328.398" class="i"/><path d="M1.809 459.914v.875h.871v-.875zm0 0" class="j"/><use xlink:href="#Ag" y="328.398" class="k"/><use xlink:href="#Ah" y="328.398" class="D F G I l"/><g class="E"><use xlink:href="#Z" x="21.138" y="470.148"/><use xlink:href="#I" x="24.883" y="470.148"/><use xlink:href="#h" x="32.951" y="470.148"/><use xlink:href="#E" x="39.679" y="470.148"/><use xlink:href="#D" x="46.922" y="470.148"/><use xlink:href="#F" x="52.241" y="470.148"/><use xlink:href="#E" x="58.868" y="470.148"/></g><use xlink:href="#AD" y="349" class="H"/><use xlink:href="#AE" y="349" class="J"/><use xlink:href="#AF" y="349" class="K"/><use xlink:href="#AG" y="349" class="L"/><use xlink:href="#AH" y="349" class="M"/><use xlink:href="#AI" y="349" class="N"/><use xlink:href="#AJ" y="349" class="O"/><use xlink:href="#AK" y="349" class="P"/><use xlink:href="#AL" y="349" class="Q"/><use xlink:href="#AM" y="349" class="R"/><use xlink:href="#AN" y="349" class="S"/><use xlink:href="#AO" y="349" class="T"/><use xlink:href="#AP" y="349" class="U"/><use xlink:href="#AQ" y="349" class="V"/><use xlink:href="#AR" y="349" class="W"/><use xlink:href="#AS" y="349" class="E"/><use xlink:href="#AT" y="349" class="X"/><use xlink:href="#AU" y="349" class="Y"/><use xlink:href="#AV" y="349" class="Z"/><use xlink:href="#AW" y="349" class="a"/><use xlink:href="#AX" y="349" class="b"/><use xlink:href="#AY" y="349" class="c"/><use xlink:href="#AZ" y="349" class="d"/><use xlink:href="#Aa" y="349" class="e"/><use xlink:href="#Ab" y="349" class="f"/><use xlink:href="#Ac" y="349" class="g"/><use xlink:href="#Ad" y="349" class="h"/><use xlink:href="#Ae" y="349" class="i"/><use xlink:href="#Af" y="349" class="j"/><use xlink:href="#Ag" y="349" class="k"/><use xlink:href="#Ah" y="349" class="D F G I l"/><g class="E"><use xlink:href="#J" x="21.138" y="490.748"/><use xlink:href="#E" x="30.875" y="490.748"/><use xlink:href="#D" x="38.118" y="490.748"/><use xlink:href="#G" x="43.437" y="490.748"/><use xlink:href="#h" x="47.195" y="490.748"/><use xlink:href="#L" x="53.923" y="490.748"/><use xlink:href="#T" x="61.103" y="490.748"/><use xlink:href="#G" x="65.965" y="490.748"/><use xlink:href="#h" x="69.723" y="490.748"/><use xlink:href="#E" x="76.451" y="490.748"/></g><use xlink:href="#Ap" y="222" class="H"/><use xlink:href="#AE" y="369.601" class="J"/><use xlink:href="#AF" y="369.601" class="K"/><use xlink:href="#Aq" y="222" class="L"/><use xlink:href="#AH" y="369.601" class="M"/><use xlink:href="#Ar" y="222" class="N"/><use xlink:href="#AJ" y="369.601" class="O"/><use xlink:href="#As" y="222" class="P"/><use xlink:href="#AL" y="369.601" class="Q"/><use xlink:href="#AM" y="369.601" class="R"/><use xlink:href="#At" y="222" class="S"/><use xlink:href="#AO" y="369.601" class="T"/><use xlink:href="#Au" y="222" class="U"/><use xlink:href="#AQ" y="369.601" class="V"/><use xlink:href="#AR" y="369.601" class="W"/><use xlink:href="#Av" y="222" class="E"/><use xlink:href="#AT" y="369.601" class="X"/><use xlink:href="#Aw" y="222" class="Y"/><use xlink:href="#AV" y="369.601" class="Z"/><use xlink:href="#AW" y="369.601" class="a"/><use xlink:href="#Ax" y="222" class="b"/><use xlink:href="#AY" y="369.601" class="c"/><use xlink:href="#Ay" y="222" class="d"/><use xlink:href="#Aa" y="369.601" class="e"/><use xlink:href="#Ab" y="369.601" class="f"/><use xlink:href="#Az" y="222" class="g"/><use xlink:href="#Ad" y="369.601" class="h"/><use xlink:href="#BA" y="222" class="i"/><use xlink:href="#Af" y="369.601" class="j"/><use xlink:href="#BB" y="222" class="k"/><use xlink:href="#BC" y="222" class="D F G I l"/><g class="E"><use xlink:href="#Z" x="21.138" y="511.348"/><use xlink:href="#I" x="24.883" y="511.348"/><use xlink:href="#T" x="32.951" y="511.348"/><use xlink:href="#E" x="37.813" y="511.348"/><use xlink:href="#N" x="45.056" y="511.348"/><use xlink:href="#D" x="53.162" y="511.348"/><use xlink:href="#L" x="58.481" y="511.348"/><use xlink:href="#T" x="65.66" y="511.348"/><use xlink:href="#E" x="70.523" y="511.348"/></g><path d="M186.961 473.762h360V83.039h-360zm0 0" fill="rgb(88.000305%,100%,88.000305%)"/><g clip-path="url(#AB)" class="D F G"><path d="M195.418 466.949l.422-.437.422-.441.844-.879 1.691-1.758 3.375-3.516 7.32-7.625 6.836-7.121 6.699-6.98 7.27-7.574 6.785-7.066 7.352-7.656 7.219-7.52 6.734-7.016 7.301-7.602 6.816-7.102 6.68-6.961 7.25-7.551 6.766-7.047 7.332-7.637 7.199-7.5 6.711-6.992 7.281-7.586 6.797-7.078 7.363-7.672 7.23-7.531 6.746-7.027 7.313-7.617 6.828-7.113 6.695-6.973 7.262-7.562 6.777-7.059 7.344-7.652 7.211-7.512 6.727-7.004 7.293-7.598 6.809-7.094 6.672-6.953 7.242-7.543 6.758-7.039 7.324-7.629 6.84-7.125 6.707-6.984 7.273-7.578 6.789-7.07 7.359-7.664 7.223-7.523 6.734-7.02 7.309-7.609 6.82-7.105 6.684-6.965 7.254-7.555 6.77-7.055.121-.121.117-.125.234-.242 3.309-3.445.117-.125.117-.121.238-.246.469-.492.945-.984.117-.121.121-.125.234-.246.473-.492.117-.121.121-.125.234-.246.117-.121.117-.125.121-.121.117-.125" stroke-width="1.6" stroke="rgb(36.841382%,50.678264%,70.980392%)"/></g><g fill-rule="evenodd" fill="rgb(50.000763%,0%,50.000763%)"><use xlink:href="#BD"/><use xlink:href="#BD"/></g><path d="M195.418 287.777v-4" class="D G o p"/><g class="q"><use xlink:href="#o" x="187.1" y="300.647"/><use xlink:href="#p" x="192.356" y="300.647"/><use xlink:href="#q" x="198.047" y="300.647"/></g><path d="M212.621 287.777v-2.398m17.199 2.398v-2.398m17.2 2.398v-2.398m17.203 2.398v-2.398m17.199 2.398v-4" class="D G o p"/><g class="q"><use xlink:href="#o" x="275.949" y="300.647"/><use xlink:href="#r" x="281.205" y="300.647"/></g><path d="M298.625 287.777v-2.398m17.199 2.398v-2.398m17.199 2.398v-2.398m17.204 2.398v-2.398m17.199 2.398v-4m17.199 4v-2.398m17.203 2.398v-2.398m17.199 2.398v-2.398m17.203 2.398v-2.398m17.2 2.398v-4" class="D G o p"/><use xlink:href="#r" x="450.584" y="300.647" class="q"/><path d="M470.629 287.777v-2.398m17.203 2.398v-2.398m17.199 2.398v-2.398m17.199 2.398v-2.398m17.204 2.398v-4" class="D G o p"/><g class="q"><use xlink:href="#p" x="533.742" y="300.647"/><use xlink:href="#q" x="539.433" y="300.647"/></g><g clip-path="url(#AC)" class="D G o p"><path d="M188.25 287.777h358.352"/></g><path d="M367.426 466.949h4" class="D G o p"/><g class="q"><use xlink:href="#o" x="347.788" y="469.906"/><use xlink:href="#p" x="353.044" y="469.906"/><use xlink:href="#q" x="358.735" y="469.906"/></g><path d="M367.426 449.035h2.398m-2.398-17.918h2.398m-2.398-17.918h2.398m-2.398-17.918h2.398m-2.398-17.918h4" class="D G o p"/><g class="q"><use xlink:href="#o" x="353.479" y="380.319"/><use xlink:href="#r" x="358.735" y="380.319"/></g><path d="M367.426 359.445h2.398m-2.398-17.914h2.398m-2.398-17.918h2.398m-2.398-17.918h2.398m-2.398-17.918h4m-4-17.918h2.398m-2.398-17.918h2.398m-2.398-17.918h2.398m-2.398-17.914h2.398m-2.398-17.918h4" class="D G o p"/><use xlink:href="#r" x="358.735" y="201.145" class="q"/><path d="M367.426 180.273h2.398m-2.398-17.918h2.398m-2.398-17.917h2.398m-2.398-17.918h2.398m-2.398-17.918h4" class="D G o p"/><g class="q"><use xlink:href="#p" x="353.044" y="111.558"/><use xlink:href="#q" x="358.735" y="111.558"/></g><path d="M367.426 466.949V108.602" class="D G o p"/><g fill="rgb(40%,40%,40%)"><use xlink:href="#s" x="317.794" y="96.409"/><use xlink:href="#t" x="324.257" y="96.409"/><use xlink:href="#u" x="331.704" y="96.409"/><use xlink:href="#v" x="338.331" y="96.409"/><use xlink:href="#w" x="343.241" y="96.409"/><use xlink:href="#x" x="346.71" y="96.409"/><use xlink:href="#y" x="354.157" y="96.409"/><use xlink:href="#w" x="365.437" y="96.409"/><use xlink:href="#z" x="368.905" y="96.409"/><use xlink:href="#AA" x="378.82" y="96.409"/><use xlink:href="#u" x="387.122" y="96.409"/><use xlink:href="#v" x="393.749" y="96.409"/><use xlink:href="#w" x="398.659" y="96.409"/><use xlink:href="#x" x="402.128" y="96.409"/><use xlink:href="#y" x="409.575" y="96.409"/></g></svg>